<?xml version="1.0" encoding="utf-8"?>
<!-- Generator: Adobe Illustrator 18.1.1, SVG Export Plug-In . SVG Version: 6.00 Build 0)  -->
<svg version="1.1" id="Capa_1" xmlns="http://www.w3.org/2000/svg" xmlns:xlink="http://www.w3.org/1999/xlink" x="0px" y="0px"
	 viewBox="0 0 50 50" enable-background="new 0 0 50 50" xml:space="preserve">
<path fill="#DD5151" d="M47.6,38.7L29.1,6.6c-0.8-1.4-2.3-2.3-3.9-2.3c-1.6,0-3.1,0.8-3.9,2.3L2.6,38.7c-0.8,1.4-0.8,3.1,0,4.5
	c0.8,1.4,2.3,2.3,3.9,2.3h37.2c1.6,0,3.1-0.8,3.9-2.3C48.5,41.9,48.5,40.2,47.6,38.7L47.6,38.7z"/>
<path fill="#FFFFFF" d="M25.1,40.3c-1.6,0-3-1.3-3-3c0-1.6,1.3-3,3-3c1.6,0,3,1.3,3,3C28.1,39,26.8,40.3,25.1,40.3L25.1,40.3z"/>
<path fill="#FFFFFF" d="M28.1,27.7c0,1.6-1.3,3-3,3c-1.6,0-3-1.3-3-3V14c0-0.8,0.6-1.4,1.4-1.4h3.1c0.8,0,1.4,0.6,1.4,1.4V27.7z"/>
<path fill="#DD5151" d="M28.1,27.7"/>
</svg>
