<?xml version="1.0" encoding="utf-8"?>
<!-- Generator: Adobe Illustrator 18.1.1, SVG Export Plug-In . SVG Version: 6.00 Build 0)  -->
<svg version="1.1" id="Capa_1" xmlns="http://www.w3.org/2000/svg" xmlns:xlink="http://www.w3.org/1999/xlink" x="0px" y="0px"
	 viewBox="0 0 50 50" enable-background="new 0 0 50 50" xml:space="preserve">
<g>
	<g>
		<circle fill="#DD5151" cx="25.5" cy="25" r="23.5"/>
	</g>
	<g>
		<g>
			<path fill="#FFFFFF" d="M17.9,39.3c-0.6,0-1.1-0.2-1.6-0.5c-1.3-0.9-1.7-2.7-0.8-4L30.7,12c0.9-1.3,2.7-1.7,4-0.8
				c1.3,0.9,1.7,2.7,0.8,4L20.3,38C19.7,38.8,18.8,39.3,17.9,39.3z"/>
		</g>
		<g>
			<path fill="#FFFFFF" d="M33.1,39.3c-0.9,0-1.9-0.5-2.4-1.3L15.5,15.3c-0.9-1.3-0.5-3.1,0.8-4c1.3-0.9,3.1-0.5,4,0.8l15.2,22.7
				c0.9,1.3,0.5,3.1-0.8,4C34.3,39.1,33.7,39.3,33.1,39.3z"/>
		</g>
	</g>
</g>
</svg>
