<?xml version="1.0" encoding="utf-8"?>
<!-- Generator: Adobe Illustrator 18.1.1, SVG Export Plug-In . SVG Version: 6.00 Build 0)  -->
<svg version="1.1" id="Capa_1" xmlns="http://www.w3.org/2000/svg" xmlns:xlink="http://www.w3.org/1999/xlink" x="0px" y="0px"
	 viewBox="0 0 50 50" enable-background="new 0 0 50 50" xml:space="preserve">
<g>
	<g>
		<g>
			<g>
				<g opacity="0.15">
					<defs>
						<rect id="SVGID_1_" x="-258.1" y="406" opacity="0.15" width="566.9" height="9"/>
					</defs>
					<clipPath id="SVGID_2_">
						<use xlink:href="#SVGID_1_"  overflow="visible"/>
					</clipPath>
					
						<radialGradient id="SVGID_3_" cx="49096" cy="-1494.7914" r="37.7787" gradientTransform="matrix(0 0.1318 -7.8538 0 -11714.4336 -6065.103)" gradientUnits="userSpaceOnUse">
						<stop  offset="0" style="stop-color:#272726"/>
						<stop  offset="1" style="stop-color:#272726;stop-opacity:0"/>
					</radialGradient>
					<path clip-path="url(#SVGID_2_)" fill="url(#SVGID_3_)" d="M13.7,411.2c-170.9,0-271.7-2.3-271.7-5.2
						c0-2.9,100.9-5.2,271.7-5.2s295.2,2.3,295.2,5.2C308.9,408.9,184.5,411.2,13.7,411.2z"/>
				</g>
				<linearGradient id="SVGID_4_" gradientUnits="userSpaceOnUse" x1="-258.0526" y1="419.3052" x2="308.8766" y2="419.3052">
					<stop  offset="0" style="stop-color:#242225;stop-opacity:0"/>
					<stop  offset="0.5" style="stop-color:#6B9249;stop-opacity:0.35"/>
					<stop  offset="1" style="stop-color:#242225;stop-opacity:0"/>
				</linearGradient>
				<rect x="-258.1" y="406" fill="url(#SVGID_4_)" width="566.9" height="26.7"/>
			</g>
		</g>
	</g>
	<g>
		<g>
			<path fill="#272725" d="M-63.4,418.3c1.3,0,1.6,1.2,1.6,2.9s-0.3,2.9-1.6,2.9c-1.3,0-1.6-1.2-1.6-2.9S-64.8,418.3-63.4,418.3z
				 M-63.4,423.8c0.8,0,1.1-0.7,1.1-2.5c0-1.8-0.3-2.5-1.1-2.5c-0.8,0-1.1,0.7-1.1,2.5C-64.5,423.1-64.2,423.8-63.4,423.8z"/>
			<path fill="#272725" d="M-61.1,418.4h3.2v0.4c-1.2,1.5-1.9,3.7-2.1,5.2h-0.6c0.1-1.6,1-3.8,2.1-5.2h-2.7V418.4z"/>
			<path fill="#272725" d="M-55.5,421.9l1.9-3.6h1.2v3.6h0.6v0.9h-0.6v1.2h-1.1v-1.2h-2V421.9z M-53.4,419.8L-53.4,419.8l-1.1,2.2
				h1.1V419.8z"/>
			<path fill="#272725" d="M-50.1,424.1V420h-1.1v-0.8h0.1c0.8,0,1.2-0.3,1.3-0.9h0.9v5.8H-50.1z"/>
			<path fill="#272725" d="M-46.3,422.4c0,0.7,0.1,1,0.6,1c0.6,0,0.6-0.4,0.6-0.9c0-0.5-0.1-1-0.8-1h-0.4v-0.8h0.4
				c0.5,0,0.7-0.4,0.7-0.9c0-0.5-0.2-0.8-0.6-0.8c-0.5,0-0.6,0.4-0.6,0.9h-1.1c0-1.1,0.6-1.7,1.7-1.7c1,0,1.7,0.5,1.7,1.5
				c0,0.7-0.3,1.1-0.9,1.3v0c0.7,0.1,1,0.6,1,1.4c0,0.8-0.3,1.7-1.9,1.7c-1.1,0-1.7-0.7-1.7-1.8v0H-46.3z"/>
			<path fill="#272725" d="M-38.2,419.3h-2.1l-0.1,1.3h0c0.2-0.3,0.6-0.4,1.1-0.4c1.1,0,1.4,0.9,1.4,1.8c0,1.3-0.4,2.1-1.8,2.1
				c-1.5,0-1.7-1-1.7-1.6v-0.2h1.1c0,0.4,0.1,0.9,0.6,0.9c0.5,0,0.7-0.4,0.7-1.1c0-1-0.1-1.2-0.7-1.2c-0.3,0-0.5,0.2-0.6,0.5h-1
				l0.2-3.1h3V419.3z"/>
			<path fill="#272725" d="M-35.7,418.3c1.4,0,1.8,0.8,1.8,2.8c0,1.6-0.1,3.1-1.8,3.1c-1.4,0-1.8-0.8-1.8-2.8
				C-37.5,419.8-37.4,418.3-35.7,418.3z M-36.3,421.6c0,1.4,0.1,1.8,0.6,1.8c0.5,0,0.6-0.5,0.6-1.9v-0.6c0-1.4-0.1-1.8-0.6-1.8
				c-0.5,0-0.6,0.5-0.6,1.9V421.6z"/>
			<path fill="#272725" d="M-31.7,418.3c1.4,0,1.8,0.8,1.8,2.8c0,1.6-0.1,3.1-1.8,3.1c-1.4,0-1.8-0.8-1.8-2.8
				C-33.5,419.8-33.4,418.3-31.7,418.3z M-32.4,421.6c0,1.4,0.1,1.8,0.6,1.8c0.5,0,0.6-0.5,0.6-1.9v-0.6c0-1.4-0.1-1.8-0.6-1.8
				c-0.5,0-0.6,0.5-0.6,1.9V421.6z"/>
			<path fill="#272725" d="M-27.7,418.3c1.4,0,1.8,0.8,1.8,2.8c0,1.6-0.1,3.1-1.8,3.1c-1.4,0-1.8-0.8-1.8-2.8
				C-29.5,419.8-29.5,418.3-27.7,418.3z M-28.4,421.6c0,1.4,0.1,1.8,0.6,1.8c0.5,0,0.6-0.5,0.6-1.9v-0.6c0-1.4-0.1-1.8-0.6-1.8
				c-0.5,0-0.6,0.5-0.6,1.9V421.6z"/>
		</g>
		<g>
			<path fill="#272725" d="M-17.9,418.2h0.4v6h-0.4V418.2z"/>
		</g>
		<g>
			<path fill="#272725" d="M40.9,418.2h0.4v6h-0.4V418.2z"/>
		</g>
		<g>
			<path fill="#272725" d="M47.9,419.1h0.6l0.8,4.4h0l0.9-4.4H51l0.8,4.4h0l0.8-4.4h0.6l-1.1,5h-0.7l-0.9-4.4h0l-0.9,4.4H49
				L47.9,419.1z"/>
			<path fill="#272725" d="M53.5,419.1h0.6l0.8,4.4h0l0.9-4.4h0.7l0.8,4.4h0l0.8-4.4h0.6l-1.1,5h-0.7l-0.9-4.4h0l-0.9,4.4h-0.7
				L53.5,419.1z"/>
			<path fill="#272725" d="M59,419.1h0.6l0.8,4.4h0l0.9-4.4h0.7l0.8,4.4h0l0.8-4.4h0.6l-1.1,5h-0.7l-0.9-4.4h0l-0.9,4.4h-0.7
				L59,419.1z"/>
			<path fill="#272725" d="M65,423.1h0.6v1H65V423.1z"/>
			<path fill="#272725" d="M69.3,420.8c0-0.5-0.1-1-0.6-1c-0.6,0-0.7,0.6-0.7,1.7c0,1.2,0.1,1.8,0.7,1.8c0.4,0,0.6-0.4,0.6-1.2h1.2
				c0,1.3-0.6,2.1-1.9,2.1c-1.3,0-1.9-0.6-1.9-2.7c0-2.1,0.9-2.7,2-2.7c1.2,0,1.8,0.8,1.8,2H69.3z"/>
			<path fill="#272725" d="M73,418.9c1.6,0,2,0.9,2,2.7c0,1.7-0.5,2.7-2,2.7c-1.6,0-2-0.9-2-2.7C71,419.8,71.5,418.9,73,418.9z
				 M73,423.3c0.5,0,0.7-0.5,0.7-1.8s-0.2-1.8-0.7-1.8c-0.6,0-0.7,0.7-0.7,1.8S72.3,423.3,73,423.3z"/>
			<path fill="#272725" d="M77.5,418.9c1.6,0,2,0.9,2,2.7c0,1.7-0.5,2.7-2,2.7c-1.6,0-2-0.9-2-2.7C75.5,419.8,76,418.9,77.5,418.9z
				 M77.5,423.3c0.5,0,0.7-0.5,0.7-1.8s-0.2-1.8-0.7-1.8c-0.6,0-0.7,0.7-0.7,1.8S76.8,423.3,77.5,423.3z"/>
			<path fill="#272725" d="M80.2,419h1.2v0.5h0c0.3-0.5,0.6-0.7,1.1-0.7c1.1,0,1.5,0.8,1.5,2.7s-0.5,2.7-1.5,2.7
				c-0.5,0-0.8-0.2-1.1-0.6h0v2.1h-1.3V419z M82.1,423.2c0.6,0,0.7-0.6,0.7-1.7c0-1.1-0.1-1.7-0.7-1.7c-0.6,0-0.7,0.6-0.7,1.7
				C81.5,422.6,81.6,423.2,82.1,423.2z"/>
			<path fill="#272725" d="M84.9,419h1.3v5.4c0,0.8-0.3,1.3-1.5,1.3c-0.2,0-0.3,0-0.5,0v-0.9c0.1,0,0.1,0,0.2,0
				c0.5,0,0.5-0.3,0.5-0.8V419z M84.9,417.3h1.3v1.1h-1.3V417.3z"/>
			<path fill="#272725" d="M88.2,421.7v0.4c0,0.6,0.2,1.2,0.6,1.2c0.4,0,0.6-0.3,0.7-0.9h1.2c0,1.2-0.6,1.8-1.8,1.8
				c-1.9,0-2-1.4-2-2.7c0-1.4,0.3-2.6,2-2.6c1.5,0,1.8,1,1.8,2.6v0.3H88.2z M89.5,421c0-0.8-0.1-1.2-0.7-1.2c-0.5,0-0.7,0.5-0.7,1
				v0.2H89.5z"/>
			<path fill="#272725" d="M91.4,419h1.2v0.5h0c0.3-0.5,0.6-0.7,1.1-0.7c1.1,0,1.5,0.8,1.5,2.7s-0.5,2.7-1.5,2.7
				c-0.5,0-0.8-0.2-1.1-0.6h0v2.1h-1.3V419z M93.4,423.2c0.6,0,0.7-0.6,0.7-1.7c0-1.1-0.1-1.7-0.7-1.7c-0.6,0-0.7,0.6-0.7,1.7
				C92.7,422.6,92.9,423.2,93.4,423.2z"/>
			<path fill="#272725" d="M96.5,423.1h0.6v1h-0.6V423.1z"/>
			<path fill="#272725" d="M98.7,419.6H98v-0.5h0.7v-0.6c0-0.7,0.1-1.2,1.1-1.2c0.2,0,0.3,0,0.4,0v0.5c-0.1,0-0.2,0-0.3,0
				c-0.4,0-0.6,0.2-0.6,0.7v0.6h0.9v0.5h-0.9v4.5h-0.6V419.6z M100.8,417.4h0.6v1h-0.6V417.4z M100.8,419.1h0.6v5h-0.6V419.1z"/>
			<path fill="#272725" d="M102.5,419.1h0.5v0.7h0c0.3-0.6,0.8-0.8,1.3-0.8c0.8,0,1.3,0.4,1.3,1.3v3.8H105v-3.6c0-0.7-0.3-1-0.9-1
				c-0.7,0-1.1,0.5-1.1,1.3v3.3h-0.6V419.1z"/>
			<path fill="#272725" d="M106.9,423.1h0.6v1h-0.6V423.1z"/>
			<path fill="#272725" d="M112,422.4c-0.1,1.1-0.7,1.8-1.6,1.8c-1,0-1.7-0.7-1.7-2.6c0-1.7,0.6-2.6,1.7-2.6c1.1,0,1.6,0.8,1.6,2.4
				v0.2h-2.7v0.2c0,1.4,0.5,1.9,1.1,1.9c0.6,0,1-0.4,1.1-1.3H112z M111.4,421.1c0-1.2-0.4-1.7-1.1-1.7c-0.7,0-1,0.4-1.1,1.7H111.4z"
				/>
			<path fill="#272725" d="M115.9,422.4c-0.1,1.1-0.7,1.8-1.6,1.8c-1,0-1.7-0.7-1.7-2.6c0-1.7,0.6-2.6,1.7-2.6
				c0.9,0,1.5,0.6,1.5,1.6h-0.6c-0.1-0.8-0.4-1.1-1-1.1c-0.6,0-1.1,0.4-1.1,2.1c0,1.9,0.5,2.1,1.1,2.1c0.6,0,0.9-0.4,1-1.3H115.9z"
				/>
		</g>
		<path fill-rule="evenodd" clip-rule="evenodd" fill="#272725" d="M-9.8,420.6c0-2.4,2-4.4,4.4-4.4c2.4,0,4.4,2,4.4,4.4
			c0,2.4-2,4.4-4.4,4.4C-7.8,425.1-9.8,423.1-9.8,420.6 M-4.3,419.9H-5v-0.4c0-0.2,0-0.3,0.3-0.3h0.4v-0.8h-0.6c-0.8,0-1,0.4-1,1
			v0.5h-0.5v0.8h0.5v2.3H-5v-2.3h0.6L-4.3,419.9z M17.8,416.2c-2.4,0-4.4,2-4.4,4.4s2,4.4,4.4,4.4c2.4,0,4.4-2,4.4-4.4
			S20.2,416.2,17.8,416.2 M19.7,419.8c0.2-0.1,0.4-0.3,0.5-0.5c-0.2,0.1-0.4,0.1-0.6,0.2c0.2-0.1,0.4-0.3,0.4-0.5
			c-0.2,0.1-0.4,0.2-0.6,0.2c-0.2-0.2-0.4-0.3-0.7-0.3c-0.5,0-1,0.4-1,1c0,0.1,0,0.2,0,0.2c-0.8,0-1.5-0.4-2-1
			c-0.1,0.1-0.1,0.3-0.1,0.5c0,0.3,0.2,0.6,0.4,0.8c-0.2,0-0.3,0-0.4-0.1v0c0,0.5,0.3,0.9,0.8,1c-0.1,0-0.2,0-0.3,0
			c-0.1,0-0.1,0-0.2,0c0.1,0.4,0.5,0.7,0.9,0.7c-0.3,0.3-0.8,0.4-1.2,0.4c-0.1,0-0.2,0-0.2,0c0.4,0.3,1,0.4,1.5,0.4
			c1.8,0,2.8-1.5,2.8-2.8C19.7,419.9,19.7,419.9,19.7,419.8 M6.2,416.2c-2.4,0-4.4,2-4.4,4.4s2,4.4,4.4,4.4c2.4,0,4.4-2,4.4-4.4
			S8.7,416.2,6.2,416.2 M8,422.1c0.2,0,0.4-0.2,0.5-0.5c0.1-0.3,0.1-0.7,0.1-1.1c0-0.4,0-0.7-0.1-1.1c-0.1-0.2-0.3-0.4-0.5-0.5
			C7.4,419,6.8,419,6.2,419c-0.6,0-1.2,0-1.7,0.1c-0.2,0-0.4,0.2-0.5,0.5c-0.1,0.3-0.1,0.7-0.1,1.1c0,0.4,0,0.7,0.1,1.1
			c0.1,0.2,0.3,0.4,0.5,0.5c0.6,0.1,1.2,0.1,1.7,0.1C6.8,422.2,7.4,422.2,8,422.1 M7.1,420.6l-1.3,1v-1.9l0.7,0.5L7.1,420.6z
			 M25,420.6c0,2.4,2,4.4,4.4,4.4s4.4-2,4.4-4.4c0-0.5-0.1-1.1-0.3-1.5c-0.6-1.7-2.2-2.9-4.1-2.9C27,416.2,25,418.2,25,420.6
			 M31.3,420.1L31.3,420.1l-0.1-0.1c-0.1-0.1-0.4,0-0.5-0.1c-0.1-0.1-0.1-0.2-0.1-0.3c0-0.3-0.1-0.3-0.1-0.4c-0.2-0.4-0.6-0.6-1-0.7
			h-0.9c-0.7,0-1.3,0.6-1.3,1.3v1.5c0,0.7,0.6,1.3,1.3,1.3h1.4c0.7,0,1.2-0.6,1.3-1.3L31.3,420.1L31.3,420.1z M30.1,421.4h-1.4
			c-0.1,0-0.2-0.1-0.2-0.2c0-0.1,0.1-0.2,0.2-0.2h1.4c0.1,0,0.2,0.1,0.2,0.2C30.3,421.3,30.2,421.4,30.1,421.4 M28.7,419.5h0.7
			c0.1,0,0.2,0.1,0.2,0.2c0,0.1-0.1,0.2-0.2,0.2h-0.7c-0.1,0-0.2-0.1-0.2-0.2C28.4,419.6,28.5,419.5,28.7,419.5"/>
	</g>
</g>
<g>
	<circle fill="#81A446" cx="24.1" cy="24.1" r="20.5"/>
	
		<polyline fill="none" stroke="#FFFFFF" stroke-width="5.0894" stroke-linecap="round" stroke-linejoin="round" stroke-miterlimit="10" points="
		14.3,26 19.3,34.7 32.6,14.9 	"/>
</g>
</svg>
