<?xml version="1.0" encoding="utf-8"?>
<!-- Generator: Adobe Illustrator 18.1.1, SVG Export Plug-In . SVG Version: 6.00 Build 0)  -->
<svg version="1.1" id="Capa_1" xmlns="http://www.w3.org/2000/svg" xmlns:xlink="http://www.w3.org/1999/xlink" x="0px" y="0px"
	 viewBox="0 0 20 20" enable-background="new 0 0 20 20" xml:space="preserve">
<g>
	<path fill="#454544" d="M4.4,13.7c-0.5,0.5-0.5,1.4,0,2c0.5,0.5,1.4,0.5,2,0l9.1-9.3C15.9,6,16,5.5,15.9,5.1
		c-0.1-0.3-0.2-0.5-0.4-0.7c-0.5-0.5-1.4-0.5-2,0L4.4,13.7z"/>
	<path fill="#454544" d="M13.7,15.6c0.5,0.5,1.4,0.5,2,0c0.5-0.5,0.5-1.4,0-2L6.3,4.4C6,4.1,5.5,4,5.1,4.1C4.8,4.1,4.6,4.3,4.4,4.5
		c-0.5,0.5-0.5,1.4,0,2L13.7,15.6z"/>
</g>
</svg>
