<?xml version="1.0" encoding="utf-8"?>
<!-- Generator: Adobe Illustrator 18.1.1, SVG Export Plug-In . SVG Version: 6.00 Build 0)  -->
<svg version="1.1" id="Capa_1" xmlns="http://www.w3.org/2000/svg" xmlns:xlink="http://www.w3.org/1999/xlink" x="0px" y="0px"
	 viewBox="0 0 962 144" enable-background="new 0 0 962 144" xml:space="preserve">
<g>
	<path fill="#858584" d="M42.2,75.5c0-1.3-0.3-2.3-1-3.1c-0.7-0.8-1.9-1.5-3.6-2.2c-3.5-1.2-6.1-2.6-7.8-4.1
		c-1.7-1.5-2.6-3.7-2.6-6.5c0-2.7,1-5,3-6.7c2-1.7,4.6-2.6,7.7-2.6c3.2,0,5.8,1,7.8,2.9c2,1.9,3,4.3,2.9,7.3l0,0.1h-6.3
		c0-1.5-0.4-2.8-1.1-3.7c-0.8-0.9-1.8-1.4-3.2-1.4c-1.3,0-2.3,0.4-3,1.2s-1.1,1.8-1.1,3c0,1.1,0.4,2,1.2,2.7
		c0.8,0.7,2.2,1.5,4.2,2.4c3.2,1.1,5.5,2.4,7.1,4.1c1.6,1.6,2.4,3.9,2.4,6.7c0,2.9-1,5.2-2.9,6.8s-4.5,2.5-7.7,2.5
		c-3.2,0-5.9-0.9-8.3-2.8c-2.3-1.9-3.5-4.5-3.4-8l0-0.1h6.4c0,2.1,0.4,3.5,1.3,4.5c0.9,0.9,2.2,1.4,3.9,1.4c1.4,0,2.4-0.4,3.1-1.1
		C41.9,77.8,42.2,76.8,42.2,75.5z"/>
	<path fill="#858584" d="M59.7,84.3h-6.5V50.8h6.5V84.3z"/>
	<path fill="#858584" d="M79.9,75.5c0-1.3-0.3-2.3-1-3.1c-0.7-0.8-1.9-1.5-3.6-2.2c-3.5-1.2-6.1-2.6-7.8-4.1
		c-1.7-1.5-2.6-3.7-2.6-6.5c0-2.7,1-5,3-6.7c2-1.7,4.6-2.6,7.7-2.6c3.2,0,5.8,1,7.8,2.9c2,1.9,3,4.3,2.9,7.3l0,0.1H80
		c0-1.5-0.4-2.8-1.1-3.7c-0.8-0.9-1.8-1.4-3.2-1.4c-1.3,0-2.3,0.4-3,1.2s-1.1,1.8-1.1,3c0,1.1,0.4,2,1.2,2.7
		c0.8,0.7,2.2,1.5,4.2,2.4c3.2,1.1,5.5,2.4,7.1,4.1c1.6,1.6,2.4,3.9,2.4,6.7c0,2.9-1,5.2-2.9,6.8s-4.5,2.5-7.7,2.5
		c-3.2,0-5.9-0.9-8.3-2.8c-2.3-1.9-3.5-4.5-3.4-8l0-0.1h6.4c0,2.1,0.4,3.5,1.3,4.5c0.9,0.9,2.2,1.4,3.9,1.4c1.4,0,2.4-0.4,3.1-1.1
		C79.6,77.8,79.9,76.8,79.9,75.5z"/>
	<path fill="#858584" d="M110.2,56.1h-7.5v28.2h-6.5V56.1h-7.5v-5.2h21.5V56.1z"/>
	<path fill="#858584" d="M131.1,69.6h-11.2V79h13.2v5.2h-19.7V50.8H133v5.2h-13.2v8.3h11.2V69.6z"/>
	<path fill="#858584" d="M144.8,50.8l6,24.5h0.1l6.1-24.5h8.5v33.4H159v-9.7l0.6-13l-0.1,0l-6.4,22.7h-4.3l-6.3-22.5l-0.1,0
		l0.6,12.8v9.7h-6.5V50.8H144.8z"/>
	<path fill="#858584" d="M185.9,77.1h-8.8l-1.8,7.1h-6.6l9.4-33.4h6.8l9.4,33.4h-6.6L185.9,77.1z M178.4,71.9h6.2l-3-11.8h-0.1
		L178.4,71.9z"/>
	<path fill="#858584" d="M226.9,56.1h-7.5v28.2h-6.5V56.1h-7.5v-5.2h21.5V56.1z"/>
	<path fill="#858584" d="M236.6,71v13.3H230V50.9h10.9c3.3,0,5.9,0.9,7.7,2.6s2.8,4.1,2.8,7.2c0,1.7-0.4,3.2-1.2,4.5
		c-0.8,1.3-1.9,2.3-3.4,3c1.7,0.6,2.9,1.5,3.7,2.9c0.8,1.3,1.1,3,1.1,5v2.4c0,0.9,0.1,1.9,0.3,2.9c0.2,1,0.6,1.8,1.1,2.3v0.5h-6.7
		c-0.5-0.5-0.9-1.3-1-2.4s-0.2-2.2-0.2-3.4v-2.3c0-1.7-0.3-3-1-3.9c-0.7-0.9-1.7-1.4-2.9-1.4H236.6z M236.6,65.8h4.4
		c1.3,0,2.3-0.4,3-1.2c0.7-0.8,1-2,1-3.5c0-1.5-0.3-2.7-1-3.6c-0.7-0.9-1.7-1.4-3-1.4h-4.4V65.8z"/>
	<path fill="#858584" d="M271.7,77.1h-8.8l-1.8,7.1h-6.6l9.4-33.4h6.8l9.4,33.4h-6.6L271.7,77.1z M264.2,71.9h6.2l-3-11.8h-0.1
		L264.2,71.9z"/>
	<path fill="#858584" d="M306.1,84.3h-6.5l-10.2-21.4l-0.1,0v21.3h-6.5V50.8h6.5l10.2,21.3l0.1,0V50.8h6.5V84.3z"/>
	<path fill="#858584" d="M326,75.5c0-1.3-0.3-2.3-1-3.1c-0.7-0.8-1.9-1.5-3.6-2.2c-3.5-1.2-6.1-2.6-7.8-4.1
		c-1.7-1.5-2.6-3.7-2.6-6.5c0-2.7,1-5,3-6.7c2-1.7,4.6-2.6,7.7-2.6c3.2,0,5.8,1,7.8,2.9c2,1.9,3,4.3,2.9,7.3l0,0.1h-6.3
		c0-1.5-0.4-2.8-1.1-3.7c-0.8-0.9-1.8-1.4-3.2-1.4c-1.3,0-2.3,0.4-3,1.2s-1.1,1.8-1.1,3c0,1.1,0.4,2,1.2,2.7
		c0.8,0.7,2.2,1.5,4.2,2.4c3.2,1.1,5.5,2.4,7.1,4.1c1.6,1.6,2.4,3.9,2.4,6.7c0,2.9-1,5.2-2.9,6.8s-4.5,2.5-7.7,2.5
		c-3.2,0-5.9-0.9-8.3-2.8c-2.3-1.9-3.5-4.5-3.4-8l0-0.1h6.4c0,2.1,0.4,3.5,1.3,4.5c0.9,0.9,2.2,1.4,3.9,1.4c1.4,0,2.4-0.4,3.1-1.1
		C325.7,77.8,326,76.8,326,75.5z"/>
	<path fill="#858584" d="M351.7,77.1h-8.8l-1.8,7.1h-6.6l9.4-33.4h6.8l9.4,33.4h-6.6L351.7,77.1z M344.2,71.9h6.2l-3-11.8h-0.1
		L344.2,71.9z"/>
	<path fill="#858584" d="M383.4,73.5l0.1,0.1c0,3.7-0.8,6.4-2.6,8.3c-1.8,1.9-4.4,2.8-7.8,2.8c-3.5,0-6.2-1.1-8.3-3.2
		c-2.1-2.1-3.1-5.1-3.1-9v-10c0-3.9,1-6.9,3-9c2-2.1,4.7-3.2,8-3.2c3.5,0,6.2,0.9,8,2.8c1.8,1.9,2.8,4.7,2.8,8.4l-0.1,0.1h-6.3
		c0.1-2.2-0.2-3.8-0.9-4.7c-0.7-1-1.9-1.5-3.6-1.5c-1.5,0-2.6,0.6-3.4,1.7c-0.8,1.1-1.2,2.9-1.2,5.2v10c0,2.4,0.4,4.1,1.3,5.3
		c0.8,1.1,2.1,1.7,3.7,1.7c1.6,0,2.7-0.5,3.3-1.4c0.6-0.9,0.9-2.5,0.8-4.7H383.4z"/>
	<path fill="#858584" d="M408.3,73.5l0.1,0.1c0,3.7-0.8,6.4-2.6,8.3c-1.8,1.9-4.4,2.8-7.8,2.8c-3.5,0-6.2-1.1-8.3-3.2
		c-2.1-2.1-3.1-5.1-3.1-9v-10c0-3.9,1-6.9,3-9c2-2.1,4.7-3.2,8-3.2c3.5,0,6.2,0.9,8,2.8c1.8,1.9,2.8,4.7,2.8,8.4l-0.1,0.1h-6.3
		c0.1-2.2-0.2-3.8-0.9-4.7c-0.7-1-1.9-1.5-3.6-1.5c-1.5,0-2.6,0.6-3.4,1.7c-0.8,1.1-1.2,2.9-1.2,5.2v10c0,2.4,0.4,4.1,1.3,5.3
		c0.8,1.1,2.1,1.7,3.7,1.7c1.6,0,2.7-0.5,3.3-1.4c0.6-0.9,0.9-2.5,0.8-4.7H408.3z"/>
	<path fill="#858584" d="M419.2,84.3h-6.5V50.8h6.5V84.3z"/>
	<path fill="#858584" d="M447.1,72.3c0,3.9-1.1,7-3.2,9.2c-2.1,2.2-5,3.3-8.5,3.3s-6.4-1.1-8.5-3.3s-3.2-5.3-3.2-9.2v-9.4
		c0-3.9,1.1-7,3.2-9.2c2.1-2.2,4.9-3.3,8.4-3.3c3.5,0,6.3,1.1,8.5,3.3c2.1,2.2,3.2,5.3,3.2,9.2V72.3z M440.6,62.8
		c0-2.4-0.4-4.2-1.3-5.4c-0.9-1.2-2.2-1.8-3.9-1.8c-1.7,0-3,0.6-3.9,1.8c-0.9,1.2-1.3,3-1.3,5.4v9.4c0,2.4,0.4,4.2,1.3,5.5
		s2.2,1.8,3.9,1.8c1.7,0,3-0.6,3.9-1.8c0.9-1.2,1.3-3,1.3-5.5V62.8z"/>
	<path fill="#858584" d="M474.7,84.3h-6.5L458,62.9l-0.1,0v21.3h-6.5V50.8h6.5l10.2,21.3l0.1,0V50.8h6.5V84.3z"/>
	<path fill="#858584" d="M495.3,77.1h-8.8l-1.8,7.1h-6.6l9.4-33.4h6.8l9.4,33.4h-6.6L495.3,77.1z M487.8,71.9h6.2l-3-11.8h-0.1
		L487.8,71.9z"/>
	<path fill="#858584" d="M512.8,79H525v5.2h-18.7V50.8h6.5V79z"/>
	<path fill="#FFFFFF" d="M545.1,72.3v12h-6.5V50.8h11.6c3.3,0,6,1,7.9,3c1.9,2,2.9,4.6,2.9,7.7c0,3.2-1,5.8-2.9,7.8
		c-1.9,2-4.6,2.9-7.9,2.9H545.1z M545.1,67h5.1c1.4,0,2.5-0.5,3.2-1.5c0.7-1,1.1-2.3,1.1-3.9c0-1.6-0.4-2.9-1.1-4
		c-0.7-1-1.8-1.6-3.2-1.6h-5.1V67z"/>
	<path fill="#FFFFFF" d="M582.9,69.6h-11.2V79h13.2v5.2h-19.7V50.8h19.7v5.2h-13.2v8.3h11.2V69.6z"/>
	<path fill="#FFFFFF" d="M594.8,71v13.3h-6.5V50.9h10.9c3.3,0,5.9,0.9,7.7,2.6s2.8,4.1,2.8,7.2c0,1.7-0.4,3.2-1.2,4.5
		c-0.8,1.3-1.9,2.3-3.4,3c1.7,0.6,2.9,1.5,3.7,2.9c0.8,1.3,1.1,3,1.1,5v2.4c0,0.9,0.1,1.9,0.3,2.9c0.2,1,0.6,1.8,1.1,2.3v0.5h-6.7
		c-0.5-0.5-0.9-1.3-1-2.4s-0.2-2.2-0.2-3.4v-2.3c0-1.7-0.3-3-1-3.9c-0.7-0.9-1.7-1.4-2.9-1.4H594.8z M594.8,65.8h4.4
		c1.3,0,2.3-0.4,3-1.2c0.7-0.8,1-2,1-3.5c0-1.5-0.3-2.7-1-3.6c-0.7-0.9-1.7-1.4-3-1.4h-4.4V65.8z"/>
	<path fill="#FFFFFF" d="M629.8,75.5c0-1.3-0.3-2.3-1-3.1c-0.7-0.8-1.9-1.5-3.6-2.2c-3.5-1.2-6.1-2.6-7.8-4.1
		c-1.7-1.5-2.6-3.7-2.6-6.5c0-2.7,1-5,3-6.7c2-1.7,4.6-2.6,7.7-2.6c3.2,0,5.8,1,7.8,2.9c2,1.9,3,4.3,2.9,7.3l0,0.1h-6.3
		c0-1.5-0.4-2.8-1.1-3.7c-0.8-0.9-1.8-1.4-3.2-1.4c-1.3,0-2.3,0.4-3,1.2s-1.1,1.8-1.1,3c0,1.1,0.4,2,1.2,2.7
		c0.8,0.7,2.2,1.5,4.2,2.4c3.2,1.1,5.5,2.4,7.1,4.1c1.6,1.6,2.4,3.9,2.4,6.7c0,2.9-1,5.2-2.9,6.8s-4.5,2.5-7.7,2.5
		c-3.2,0-5.9-0.9-8.3-2.8c-2.3-1.9-3.5-4.5-3.4-8l0-0.1h6.4c0,2.1,0.4,3.5,1.3,4.5c0.9,0.9,2.2,1.4,3.9,1.4c1.4,0,2.4-0.4,3.1-1.1
		C629.5,77.8,629.8,76.8,629.8,75.5z"/>
	<path fill="#FFFFFF" d="M662.9,72.3c0,3.9-1.1,7-3.2,9.2c-2.1,2.2-5,3.3-8.5,3.3s-6.4-1.1-8.5-3.3s-3.2-5.3-3.2-9.2v-9.4
		c0-3.9,1.1-7,3.2-9.2c2.1-2.2,4.9-3.3,8.4-3.3c3.5,0,6.3,1.1,8.5,3.3c2.1,2.2,3.2,5.3,3.2,9.2V72.3z M656.4,62.8
		c0-2.4-0.4-4.2-1.3-5.4c-0.9-1.2-2.2-1.8-3.9-1.8c-1.7,0-3,0.6-3.9,1.8c-0.9,1.2-1.3,3-1.3,5.4v9.4c0,2.4,0.4,4.2,1.3,5.5
		s2.2,1.8,3.9,1.8c1.7,0,3-0.6,3.9-1.8c0.9-1.2,1.3-3,1.3-5.5V62.8z"/>
	<path fill="#FFFFFF" d="M690.6,84.3h-6.5l-10.2-21.4l-0.1,0v21.3h-6.5V50.8h6.5l10.2,21.3l0.1,0V50.8h6.5V84.3z"/>
	<path fill="#FFFFFF" d="M711.1,77.1h-8.8l-1.8,7.1h-6.6l9.4-33.4h6.8l9.4,33.4h-6.6L711.1,77.1z M703.6,71.9h6.2l-3-11.8h-0.1
		L703.6,71.9z"/>
	<path fill="#FFFFFF" d="M736.9,75.5c0-1.3-0.3-2.3-1-3.1c-0.7-0.8-1.9-1.5-3.6-2.2c-3.5-1.2-6.1-2.6-7.8-4.1
		c-1.7-1.5-2.6-3.7-2.6-6.5c0-2.7,1-5,3-6.7c2-1.7,4.6-2.6,7.7-2.6c3.2,0,5.8,1,7.8,2.9c2,1.9,3,4.3,2.9,7.3l0,0.1H737
		c0-1.5-0.4-2.8-1.1-3.7c-0.8-0.9-1.8-1.4-3.2-1.4c-1.3,0-2.3,0.4-3,1.2s-1.1,1.8-1.1,3c0,1.1,0.4,2,1.2,2.7
		c0.8,0.7,2.2,1.5,4.2,2.4c3.2,1.1,5.5,2.4,7.1,4.1c1.6,1.6,2.4,3.9,2.4,6.7c0,2.9-1,5.2-2.9,6.8s-4.5,2.5-7.7,2.5
		c-3.2,0-5.9-0.9-8.3-2.8c-2.3-1.9-3.5-4.5-3.4-8l0-0.1h6.4c0,2.1,0.4,3.5,1.3,4.5c0.9,0.9,2.2,1.4,3.9,1.4c1.4,0,2.4-0.4,3.1-1.1
		C736.6,77.8,736.9,76.8,736.9,75.5z"/>
</g>
<g>
	<g>
		<g>
			<path fill="#858584" d="M886.3,48.3c4,2.5,6.7,6.7,7.3,11.6c1.6,0.8,3.4,1.2,5.3,1.2c6.9,0,12.6-5.6,12.6-12.6
				c0-6.9-5.6-12.6-12.6-12.6C892,35.9,886.4,41.4,886.3,48.3L886.3,48.3z M878.1,74.1c7,0,12.6-5.6,12.6-12.6
				c0-6.9-5.6-12.6-12.6-12.6c-6.9,0-12.6,5.6-12.6,12.6C865.5,68.4,871.1,74.1,878.1,74.1L878.1,74.1z M883.4,74.9h-10.7
				c-8.9,0-16.1,7.2-16.1,16.1v13.1l0,0.2l0.9,0.3c8.5,2.6,15.8,3.5,21.9,3.5c11.8,0,18.7-3.4,19.1-3.6l0.8-0.4h0.1V91
				C899.5,82.1,892.3,74.9,883.4,74.9L883.4,74.9z M904.2,61.9h-10.6c-0.1,4.2-1.9,8.1-4.8,10.8c7.9,2.3,13.7,9.7,13.7,18.3v4
				c10.5-0.4,16.5-3.3,16.9-3.5l0.8-0.4h0.1V78C920.3,69.2,913.1,61.9,904.2,61.9L904.2,61.9z M856,61.1c2.5,0,4.7-0.7,6.7-1.9
				c0.6-4,2.8-7.5,5.9-9.9c0-0.2,0-0.5,0-0.7c0-6.9-5.6-12.6-12.6-12.6c-6.9,0-12.6,5.6-12.6,12.6C843.4,55.4,849.1,61.1,856,61.1
				L856,61.1z M867.3,72.7c-2.8-2.7-4.7-6.5-4.8-10.7c-0.4,0-0.8-0.1-1.2-0.1h-10.7c-8.9,0-16.1,7.2-16.1,16.1v13.1l0,0.2l0.9,0.3
				c6.8,2.1,12.9,3.1,18.1,3.4V91C853.6,82.4,859.4,75.1,867.3,72.7L867.3,72.7z M867.3,72.7"/>
		</g>
	</g>
	<circle fill="none" stroke="#858584" stroke-width="3.1137" stroke-miterlimit="10" cx="877.5" cy="72" r="59.7"/>
</g>
</svg>
