<?xml version="1.0" encoding="utf-8"?>
<!-- Generator: Adobe Illustrator 18.1.1, SVG Export Plug-In . SVG Version: 6.00 Build 0)  -->
<svg version="1.1" id="Capa_1" xmlns="http://www.w3.org/2000/svg" xmlns:xlink="http://www.w3.org/1999/xlink" x="0px" y="0px"
	 viewBox="0 0 352.2 62.2" enable-background="new 0 0 352.2 62.2" xml:space="preserve">
<g>
	<g>
		
			<linearGradient id="SVGID_1_" gradientUnits="userSpaceOnUse" x1="4841.6924" y1="8331.5723" x2="4827.1709" y2="8331.5723" gradientTransform="matrix(1 0 0 1 -4827.1709 -8301.166)">
			<stop  offset="0" style="stop-color:#272725;stop-opacity:0"/>
			<stop  offset="1" style="stop-color:#272725"/>
		</linearGradient>
		<polygon opacity="0.35" fill="url(#SVGID_1_)" points="0,50.6 0,10.2 14.5,30.4 		"/>
		
			<linearGradient id="SVGID_2_" gradientUnits="userSpaceOnUse" x1="4838.812" y1="8331.5723" x2="4827.1709" y2="8331.5723" gradientTransform="matrix(1 0 0 1 -4827.1709 -8301.166)">
			<stop  offset="0" style="stop-color:#314938"/>
			<stop  offset="0.25" style="stop-color:#36523E"/>
			<stop  offset="0.5" style="stop-color:#3B5944"/>
			<stop  offset="0.75" style="stop-color:#40614A"/>
			<stop  offset="0.925" style="stop-color:#708975"/>
			<stop  offset="1" style="stop-color:#314938"/>
		</linearGradient>
		<polygon fill="url(#SVGID_2_)" points="0,50.6 0,10.2 11.6,30.4 		"/>
	</g>
</g>
<g>
	<g>
		<g>
			<g>
				<g>
					<g>
						<g>
							<g>
								<g>
									<g>
										<path fill="#FFFFFF" d="M46.2,44.2c-6.7,0-9.7-3.7-9.7-9.5v-2.2h7.3V34c0,2,0,3.9,2.2,3.9h2.9c2.1,0,2-2.5,2-3.7v-17H59
											V34c0,7.3-3.3,10.1-9.9,10.1H46.2z"/>
										<path fill="#FFFFFF" d="M62.4,17.2h21.8v6.8H70.6v3.3H83v6.3H70.6v3.3h14.1v6.8H62.4V17.2z"/>
										<path fill="#FFFFFF" d="M87.7,17.2h13.6c7.2,0,9.7,5.2,9.7,9c0,6.4-4.3,9.4-10.3,9.4h-4.8v8h-8.1V17.2z M95.8,29.3H99
											c2.1,0,4.3-0.1,4.3-2.8c0-2.4-1.8-2.5-3.8-2.5h-3.6V29.3z"/>
									</g>
								</g>
							</g>
						</g>
					</g>
				</g>
				<g>
					<path fill="#FFA300" d="M111.9,17.1h2.7l8.6,23.6h0.1l8.5-23.6h2.7l-9.8,26.4h-2.9L111.9,17.1z"/>
					<path fill="#FFA300" d="M136.5,17.1h2.3v3.7h-2.3V17.1z M136.5,24.4h2.3v19.1h-2.3V24.4z"/>
					<path fill="#FFA300" d="M142.6,24.4h2.1v4.5h0.1c1.2-3.1,3.8-4.9,7.2-4.7v2.3c-4.2-0.2-7.1,2.9-7.1,6.8v10.2h-2.3V24.4z"/>
					<path fill="#FFA300" d="M159.4,24.4h3.9v2h-3.9v12.9c0,1.5,0.2,2.4,1.9,2.5c0.7,0,1.3,0,2-0.1v2c-0.7,0-1.4,0.1-2.1,0.1
						c-3.1,0-4.2-1-4.1-4.3v-13h-3.3v-2h3.3v-5.7h2.3V24.4z"/>
					<path fill="#FFA300" d="M182.1,43.4h-2.1V40h-0.1c-1.2,2.5-3.7,4-6.6,4c-4.8,0-6.7-2.8-6.7-7.2V24.4h2.3v12.4
						c0.1,3.4,1.4,5.2,5.1,5.2c4,0,5.7-3.8,5.7-7.6v-10h2.3V43.4z"/>
					<path fill="#FFA300" d="M186.2,30.2c0.2-4.5,3.4-6.4,7.7-6.4c3.4,0,7,1,7,6.1v10.1c0,0.9,0.4,1.4,1.4,1.4
						c0.3,0,0.6-0.1,0.7-0.1v2c-0.5,0.1-0.9,0.1-1.5,0.1c-2.4,0-2.7-1.3-2.7-3.3h-0.1c-1.6,2.5-3.3,3.9-6.9,3.9
						c-3.5,0-6.4-1.7-6.4-5.6c0-5.4,5.2-5.5,10.2-6.1c1.9-0.2,3-0.5,3-2.6c0-3.1-2.3-3.9-5-3.9c-2.9,0-5,1.3-5.1,4.4H186.2z
						 M198.6,33L198.6,33c-0.4,0.6-1.4,0.7-2,0.8c-4,0.7-8.9,0.7-8.9,4.4c0,2.3,2.1,3.8,4.2,3.8c3.5,0,6.7-2.3,6.6-6V33z"/>
					<path fill="#FFA300" d="M205.7,17.1h2.3v26.4h-2.3V17.1z"/>
				</g>
			</g>
		</g>
	</g>
</g>
<g>
	<path fill="#AAA9AF" d="M248.5,22.2h8.1c3.3,0,5.4,1.9,5.4,5.2c0,3.3-2.1,5.2-5.4,5.2h-6.4v7.8h-1.7V22.2z M250.3,31.1h6
		c2.4,0,4.1-1.2,4.1-3.7c0-2.5-1.7-3.7-4.1-3.7h-6V31.1z"/>
	<path fill="#AAA9AF" d="M265.2,34.2c0,2.3,1.3,5.2,4.3,5.2c2.3,0,3.6-1.4,4.1-3.4h1.6c-0.7,3-2.4,4.7-5.7,4.7c-4.2,0-5.9-3.2-5.9-7
		c0-3.5,1.8-7,5.9-7c4.2,0,5.9,3.7,5.8,7.4H265.2z M273.8,32.9c-0.1-2.4-1.6-4.7-4.2-4.7c-2.6,0-4.1,2.3-4.3,4.7H273.8z"/>
	<path fill="#AAA9AF" d="M277.5,27.2h1.5v3.1h0.1c0.8-2.1,2.6-3.4,5-3.3v1.6c-2.9-0.2-4.9,2-4.9,4.7v7h-1.6V27.2z"/>
	<path fill="#AAA9AF" d="M293.5,31.1c-0.1-2-1.6-2.9-3.4-2.9c-1.4,0-3.1,0.6-3.1,2.3c0,1.4,1.6,1.9,2.7,2.2l2.1,0.5
		c1.8,0.3,3.8,1.4,3.8,3.7c0,2.9-2.8,4-5.3,4c-3.1,0-5.2-1.4-5.4-4.6h1.6c0.1,2.2,1.7,3.3,3.9,3.3c1.5,0,3.6-0.7,3.6-2.5
		c0-1.5-1.4-2-2.9-2.4L289,34c-2.1-0.6-3.7-1.3-3.7-3.5c0-2.7,2.6-3.7,5-3.7c2.6,0,4.7,1.4,4.8,4.2H293.5z"/>
	<path fill="#AAA9AF" d="M309.7,33.8c0,3.8-2.2,7-6.2,7c-4,0-6.2-3.2-6.2-7c0-3.8,2.2-7,6.2-7C307.5,26.8,309.7,30,309.7,33.8z
		 M298.8,33.8c0,2.8,1.5,5.6,4.6,5.6s4.6-2.8,4.6-5.6c0-2.8-1.5-5.6-4.6-5.6S298.8,31,298.8,33.8z"/>
	<path fill="#AAA9AF" d="M312,27.2h1.6v2.3h0.1c0.6-1.6,2.3-2.7,4.2-2.7c3.7,0,4.8,1.9,4.8,5.1v8.5h-1.6v-8.2c0-2.3-0.7-4-3.3-4
		c-2.6,0-4.1,1.9-4.1,4.5v7.7H312V27.2z"/>
	<path fill="#AAA9AF" d="M325.6,31.2c0.2-3.1,2.3-4.4,5.3-4.4c2.3,0,4.9,0.7,4.9,4.2v7c0,0.6,0.3,1,0.9,1c0.2,0,0.4-0.1,0.5-0.1v1.4
		c-0.4,0.1-0.6,0.1-1,0.1c-1.6,0-1.9-0.9-1.9-2.3h-0.1c-1.1,1.7-2.3,2.7-4.8,2.7c-2.4,0-4.4-1.2-4.4-3.9c0-3.7,3.6-3.8,7.1-4.2
		c1.3-0.2,2.1-0.3,2.1-1.8c0-2.2-1.6-2.7-3.4-2.7c-2,0-3.5,0.9-3.5,3.1H325.6z M334.2,33.2L334.2,33.2c-0.3,0.4-1,0.5-1.4,0.6
		c-2.7,0.5-6.1,0.5-6.1,3c0,1.6,1.4,2.6,2.9,2.6c2.5,0,4.6-1.6,4.6-4.1V33.2z"/>
	<path fill="#AAA9AF" d="M346.9,31.1c-0.1-2-1.6-2.9-3.4-2.9c-1.4,0-3.1,0.6-3.1,2.3c0,1.4,1.6,1.9,2.7,2.2l2.1,0.5
		c1.8,0.3,3.8,1.4,3.8,3.7c0,2.9-2.8,4-5.3,4c-3.1,0-5.2-1.4-5.4-4.6h1.6c0.1,2.2,1.7,3.3,3.9,3.3c1.5,0,3.6-0.7,3.6-2.5
		c0-1.5-1.4-2-2.9-2.4l-2.1-0.5c-2.1-0.6-3.7-1.3-3.7-3.5c0-2.7,2.6-3.7,5-3.7c2.6,0,4.7,1.4,4.8,4.2H346.9z"/>
</g>
<g opacity="0.35">
	<defs>
		<rect id="SVGID_3_" x="226.3" opacity="0.35" width="7.3" height="63.1"/>
	</defs>
	<clipPath id="SVGID_4_">
		<use xlink:href="#SVGID_3_"  overflow="visible"/>
	</clipPath>
	
		<radialGradient id="SVGID_5_" cx="55768.3867" cy="-1560.4424" r="10.8093" gradientTransform="matrix(0.3277 0 0 2.9776 -18049.2617 4677.9751)" gradientUnits="userSpaceOnUse">
		<stop  offset="0" style="stop-color:#FFFFFF"/>
		<stop  offset="1" style="stop-color:#FFFFFF;stop-opacity:0"/>
	</radialGradient>
	<path clip-path="url(#SVGID_4_)" fill="url(#SVGID_5_)" d="M229.9,32.8c0,18.1-1.6,30.3-3.6,30.3c-2,0-3.6-12.2-3.6-30.3
		S224.3,0,226.3,0C228.3,0,229.9,14.7,229.9,32.8z"/>
</g>
</svg>
