<svg xmlns="http://www.w3.org/2000/svg" viewBox="0 0 18.61 9.08"><defs><style>.a{fill:#a9a8ae;}</style></defs><title>Recurso 2</title><path class="a" d="M9.3.5h.07a10.5,10.5,0,0,1,4.23,1,13.21,13.21,0,0,1,4.33,3.35A13.1,13.1,0,0,1,9.36,8.58h0l0,.5,0-.5A13.09,13.09,0,0,1,.68,4.86,13.32,13.32,0,0,1,5,1.51,10.54,10.54,0,0,1,9.24.5H9.3M9.36,0H9.24A11.18,11.18,0,0,0,4.8,1.06,14.14,14.14,0,0,0,0,4.88s3.74,4.19,9.24,4.2h.13c5.5,0,9.24-4.2,9.24-4.2a14.14,14.14,0,0,0-4.8-3.82A11.18,11.18,0,0,0,9.37,0h0Z"/><path class="a" d="M9.28,1.13a3.41,3.41,0,1,1-3.4,3.41,3.41,3.41,0,0,1,3.4-3.41m0-.5a3.91,3.91,0,1,0,3.91,3.91A3.9,3.9,0,0,0,9.28.63Z"/><path class="a" d="M9.28,3.11A1.43,1.43,0,1,1,7.85,4.54,1.43,1.43,0,0,1,9.28,3.11m0-.5a1.93,1.93,0,1,0,1.93,1.93A1.92,1.92,0,0,0,9.28,2.61Z"/></svg>