<?xml version="1.0" encoding="utf-8"?>
<!-- Generator: Adobe Illustrator 22.1.0, SVG Export Plug-In . SVG Version: 6.00 Build 0)  -->
<svg version="1.1" id="Capa_1" xmlns="http://www.w3.org/2000/svg" xmlns:xlink="http://www.w3.org/1999/xlink" x="0px" y="0px"
	 viewBox="0 0 18.6 9.1" style="enable-background:new 0 0 18.6 9.1;" xml:space="preserve">
<style type="text/css">
	.st0{fill:#FFFFFF;}
</style>
<title>Recurso 2</title>
<path class="st0" d="M9.3,0.5L9.3,0.5c1.5,0,3,0.4,4.3,1c1.7,0.8,3.1,1.9,4.3,3.3c-2.3,2.3-5.4,3.6-8.6,3.7l0,0v0.5V8.6
	C6.1,8.5,3,7.1,0.7,4.9C1.9,3.5,3.3,2.3,5,1.5C6.3,0.9,7.8,0.5,9.3,0.5L9.3,0.5 M9.4,0H9.2c-1.5,0-3,0.4-4.4,1.1
	C2.9,2,1.3,3.3,0,4.9c0,0,3.7,4.2,9.2,4.2h0.1c5.5,0,9.2-4.2,9.2-4.2c-1.3-1.6-2.9-2.9-4.8-3.8C12.4,0.4,10.9,0,9.4,0L9.4,0L9.4,0z"
	/>
<path class="st0" d="M9.3,1.1c1.9,0,3.4,1.5,3.4,3.4c0,1.9-1.5,3.4-3.4,3.4S5.9,6.4,5.9,4.5c0,0,0,0,0,0C5.9,2.7,7.4,1.1,9.3,1.1
	 M9.3,0.6c-2.2,0-3.9,1.8-3.9,3.9s1.8,3.9,3.9,3.9s3.9-1.8,3.9-3.9l0,0C13.2,2.4,11.5,0.6,9.3,0.6C9.3,0.6,9.3,0.6,9.3,0.6z"/>
<path class="st0" d="M9.3,3.1c0.8,0,1.4,0.6,1.4,1.4S10.1,6,9.3,6S7.8,5.3,7.8,4.5l0,0C7.8,3.8,8.5,3.1,9.3,3.1 M9.3,2.6
	c-1.1,0-1.9,0.9-1.9,1.9s0.9,1.9,1.9,1.9s1.9-0.9,1.9-1.9C11.2,3.5,10.4,2.6,9.3,2.6C9.3,2.6,9.3,2.6,9.3,2.6z"/>
</svg>
